# xmcd
#
# Track frame offsets: 
#        150
#        21772
#        41425
#        63040
#        77268
#        97008
#        112168
#        133705
#        151730
#        173932
#        191958
#        212582
#        232007
#        255417
#        279634
#
# Disc length: 4009 seconds
#
# Revision: 0
# Processed by: cddbd v1.5.2PL0 Copyright (c) Steve Scherf et al.
# Submitted via: ExactAudioCopy v1.0b3
#
DISCID=c80fa70f
DTITLE=Dan Nguyen, Y Phung - Thiep Hong Anh Viet Ten Em
DYEAR=2013
DGENRE=
TTITLE0=Thiep hong anh viet ten em
TTITLE1=Dan Nguyen - Tim vo
TTITLE2=Dan Nguyen - Duong ve que huong
TTITLE3=Y Phung - Neu anh dung hen
TTITLE4=Dan Nguyen - Thuo ay co em
TTITLE5=Y Phung - Bong nho duong chieu
TTITLE6=Dan Nguyen - Linh hon tuong da
TTITLE7=Dan Nguyen - Toi van co don
TTITLE8=Y Phung - Sau le bong 2
TTITLE9=Dan Nguyen - Sai Gon ky niem
TTITLE10=Dan Nguyen - Suong lanh chieu dong
TTITLE11=Y Phung - Mot ngay mua dong
TTITLE12=Dan Nguyen - Tinh chet theo mua dong
TTITLE13=Dan Nguyen - La thu tran the
TTITLE14=Dan Nguyen - Ta ao dem Noel
EXTD=
EXTT0=
EXTT1=
EXTT2=
EXTT3=
EXTT4=
EXTT5=
EXTT6=
EXTT7=
EXTT8=
EXTT9=
EXTT10=
EXTT11=
EXTT12=
EXTT13=
EXTT14=
PLAYORDER=
